grf
version=1
nRows=17
nColumns=37
inDegrees=no
endheader
time	ground_force_1_vx	ground_force_1_vy	ground_force_1_vz	ground_force_1_px	ground_force_1_py	ground_force_1_pz	ground_moment_1_mx	ground_moment_1_my	ground_moment_1_mz	ground_force_2_vx	ground_force_2_vy	ground_force_2_vz	ground_force_2_px	ground_force_2_py	ground_force_2_pz	ground_moment_2_mx	ground_moment_2_my	ground_moment_2_mz	ground_force_3_vx	ground_force_3_vy	ground_force_3_vz	ground_force_3_px	ground_force_3_py	ground_force_3_pz	ground_moment_3_mx	ground_moment_3_my	ground_moment_3_mz	ground_force_4_vx	ground_force_4_vy	ground_force_4_vz	ground_force_4_px	ground_force_4_py	ground_force_4_pz	ground_moment_4_mx	ground_moment_4_my	ground_moment_4_mz
      0.00000000	      0.00000000	     -0.00000000	      0.00000000	      0.00000000	      0.00000000	      0.00000000	      0.00000000	      0.00000000	      0.00000000	      1.80733931	     78.58866882	   -581.37994385	   -318.40499997	  -1087.77688361	      0.00000000	      0.00000000	      0.00000000	   2402.94476811	     -1.08357472	    -18.45291128	   -195.23789978	   -286.87890804	   -732.46092798	      0.00000000	      0.00000000	     -0.00000000	   -311.15693607	      0.00000000	     -0.00000000	      0.00000000	      0.00000000	      0.00000000	      0.00000000	      0.00000000	      0.00000000	      0.00000000
      0.01000000	      0.00000000	     -0.00000000	      0.00000000	      0.00000000	      0.00000000	      0.00000000	      0.00000000	      0.00000000	      0.00000000	      2.98578238	     83.07506561	   -616.05541992	   -318.72791350	  -1086.76973903	      0.00000000	     -0.00000000	     -0.00000000	   2473.63620311	      2.39519021	    -11.22149870	   -155.13780212	   -287.81774726	   -733.68859028	      0.00000000	      0.00000000	     -0.00000000	   -318.38871530	      0.00000000	     -0.00000000	      0.00000000	      0.00000000	      0.00000000	      0.00000000	      0.00000000	      0.00000000	      0.00000000
      0.02000000	      0.00000000	     -0.00000000	      0.00000000	      0.00000000	      0.00000000	      0.00000000	      0.00000000	      0.00000000	      0.00000000	      3.18542624	     86.41455841	   -647.60760498	   -318.85948046	  -1086.15426926	      0.00000000	      0.00000000	      0.00000000	   2432.68667189	      6.48172768	     -4.58691320	   -120.36535645	   -292.03081244	   -735.20979793	      0.00000000	      0.00000000	     -0.00000000	   -278.02588144	      0.00000000	     -0.00000000	      0.00000000	      0.00000000	      0.00000000	      0.00000000	      0.00000000	      0.00000000	      0.00000000
      0.03000000	      0.00000000	     -0.00000000	      0.00000000	      0.00000000	      0.00000000	      0.00000000	      0.00000000	      0.00000000	      0.00000000	      4.15583277	     88.98916626	   -675.42681885	   -319.75879076	  -1086.79849619	      0.00000000	      0.00000000	      0.00000000	   2824.40067198	     10.52062717	      1.64788679	    -91.76076508	   -295.68507119	   -734.48358788	      0.00000000	     -0.00000000	     -0.00000000	   -381.72009541	      0.00000000	     -0.00000000	      0.00000000	      0.00000000	      0.00000000	      0.00000000	      0.00000000	      0.00000000	      0.00000000
      0.04000000	      0.00000000	     -0.00000000	      0.00000000	      0.00000000	      0.00000000	      0.00000000	      0.00000000	      0.00000000	      0.00000000	      4.00966263	     90.76838684	   -697.58752441	   -320.08053915	  -1086.27828977	      0.00000000	      0.00000000	      0.00000000	   2912.23029090	     13.99078334	      6.84225055	    -67.46553040	   -298.82172762	   -739.12223841	      0.00000000	      0.00000000	     -0.00000000	   -274.08738974	      0.00000000	     -0.00000000	      0.00000000	      0.00000000	      0.00000000	      0.00000000	      0.00000000	      0.00000000	      0.00000000
      0.05000000	      0.00000000	     -0.00000000	      0.00000000	      0.00000000	      0.00000000	      0.00000000	      0.00000000	      0.00000000	      0.00000000	      3.67590070	     92.63508606	   -715.50634766	   -320.35111580	  -1086.25125686	      0.00000000	      0.00000000	      0.00000000	   2700.34219711	     16.40635587	     11.08692884	    -46.91031647	   -309.00047458	   -745.84233545	      0.00000000	      0.00000000	     -0.00000000	   -261.87186032	      0.00000000	     -0.00000000	      0.00000000	      0.00000000	      0.00000000	      0.00000000	      0.00000000	      0.00000000	      0.00000000
      0.06000000	      0.00000000	     -0.00000000	      0.00000000	      0.00000000	      0.00000000	      0.00000000	      0.00000000	      0.00000000	      0.00000000	      3.47060919	     94.04976654	   -728.42517090	   -320.53167392	  -1085.95746171	      0.00000000	      0.00000000	      0.00000000	   2877.62451557	     17.25668643	     13.43945352	    -30.35700607	   -315.52452829	   -761.01416656	      0.00000000	      0.00000000	     -0.00000000	   -436.92154133	      0.00000000	     -0.00000000	      0.00000000	      0.00000000	      0.00000000	      0.00000000	      0.00000000	      0.00000000	      0.00000000
      0.07000000	      0.00000000	     -0.00000000	      0.00000000	      0.00000000	      0.00000000	      0.00000000	      0.00000000	      0.00000000	      0.00000000	      3.70832229	     95.19126892	   -737.60821533	   -320.76004837	  -1086.33855905	      0.00000000	      0.00000000	      0.00000000	   2932.37432461	      0.00000000	     -0.00000000	      0.00000000	      0.00000000	      0.00000000	      0.00000000	      0.00000000	      0.00000000	      0.00000000	      0.00000000	     -0.00000000	      0.00000000	      0.00000000	      0.00000000	      0.00000000	      0.00000000	      0.00000000	      0.00000000
      0.08000000	      0.00000000	     -0.00000000	      0.00000000	      0.00000000	      0.00000000	      0.00000000	      0.00000000	      0.00000000	      0.00000000	      3.40151405	     95.86166382	   -743.45898438	   -321.01033755	  -1086.75381123	      0.00000000	      0.00000000	      0.00000000	   2831.03399416	      0.00000000	     -0.00000000	      0.00000000	      0.00000000	      0.00000000	      0.00000000	      0.00000000	      0.00000000	      0.00000000	      0.00000000	     -0.00000000	      0.00000000	      0.00000000	      0.00000000	      0.00000000	      0.00000000	      0.00000000	      0.00000000
      0.09000000	      0.00000000	     -0.00000000	      0.00000000	      0.00000000	      0.00000000	      0.00000000	      0.00000000	      0.00000000	      0.00000000	      3.57201576	     96.21447754	   -743.27429199	   -320.88831699	  -1086.33651760	      0.00000000	      0.00000000	      0.00000000	   2859.34408239	      0.00000000	     -0.00000000	      0.00000000	      0.00000000	      0.00000000	      0.00000000	      0.00000000	      0.00000000	      0.00000000	      0.00000000	     -0.00000000	      0.00000000	      0.00000000	      0.00000000	      0.00000000	      0.00000000	      0.00000000	      0.00000000
      0.10000000	      0.00000000	     -0.00000000	      0.00000000	      0.00000000	      0.00000000	      0.00000000	      0.00000000	      0.00000000	      0.00000000	      3.51882315	     96.07592010	   -738.79974365	   -320.50123694	  -1086.71644187	      0.00000000	     -0.00000000	     -0.00000000	   2647.65168787	      0.00000000	     -0.00000000	      0.00000000	      0.00000000	      0.00000000	      0.00000000	      0.00000000	      0.00000000	      0.00000000	      0.00000000	     -0.00000000	      0.00000000	      0.00000000	      0.00000000	      0.00000000	      0.00000000	      0.00000000	      0.00000000
      0.11000000	      0.00000000	     -0.00000000	      0.00000000	      0.00000000	      0.00000000	      0.00000000	      0.00000000	      0.00000000	      0.00000000	      3.19923806	     94.96382141	   -732.32470703	   -320.35212672	  -1087.62579502	      0.00000000	      0.00000000	      0.00000000	   2546.16695425	      0.00000000	     -0.00000000	      0.00000000	      0.00000000	      0.00000000	      0.00000000	      0.00000000	      0.00000000	      0.00000000	      0.00000000	     -0.00000000	      0.00000000	      0.00000000	      0.00000000	      0.00000000	      0.00000000	      0.00000000	      0.00000000
      0.12000000	      0.00000000	     -0.00000000	      0.00000000	      0.00000000	      0.00000000	      0.00000000	      0.00000000	      0.00000000	      0.00000000	      2.94394684	     94.92102051	   -719.95166016	   -320.15123900	  -1086.94791860	      0.00000000	      0.00000000	      0.00000000	   2662.78066248	      0.00000000	     -0.00000000	      0.00000000	      0.00000000	      0.00000000	      0.00000000	      0.00000000	      0.00000000	      0.00000000	      0.00000000	     -0.00000000	      0.00000000	      0.00000000	      0.00000000	      0.00000000	      0.00000000	      0.00000000	      0.00000000
      0.13000000	      0.00000000	     -0.00000000	      0.00000000	      0.00000000	      0.00000000	      0.00000000	      0.00000000	      0.00000000	      0.00000000	      2.39556623	     93.75469971	   -708.59838867	   -320.05233566	  -1087.67711519	      0.00000000	      0.00000000	     -0.00000000	   2425.14490127	      0.00000000	     -0.00000000	      0.00000000	      0.00000000	      0.00000000	      0.00000000	      0.00000000	      0.00000000	      0.00000000	      0.00000000	     -0.00000000	      0.00000000	      0.00000000	      0.00000000	      0.00000000	      0.00000000	      0.00000000	      0.00000000
      0.14000000	      0.00000000	     -0.00000000	      0.00000000	      0.00000000	      0.00000000	      0.00000000	      0.00000000	      0.00000000	      0.00000000	      3.03315735	     92.77532959	   -694.87689209	   -320.24305852	  -1087.41697963	      0.00000000	      0.00000000	      0.00000000	   2500.92645780	     11.72918290	      7.49563067	    -22.87521744	   -262.36627448	   -747.35403301	      0.00000000	     -0.00000000	     -0.00000000	   -294.77026018	      0.00000000	     -0.00000000	      0.00000000	      0.00000000	      0.00000000	      0.00000000	      0.00000000	      0.00000000	      0.00000000
      0.15000000	      0.00000000	     -0.00000000	      0.00000000	      0.00000000	      0.00000000	      0.00000000	      0.00000000	      0.00000000	      0.00000000	      4.05802202	     92.38894653	   -685.85870361	   -320.60350291	  -1086.98274645	      0.00000000	      0.00000000	      0.00000000	   2436.29888012	      0.69889162	      2.55864185	    -36.83018494	   -263.03849617	   -731.11320399	      0.00000000	      0.00000000	     -0.00000000	   -380.68893124	      0.00000000	     -0.00000000	      0.00000000	      0.00000000	      0.00000000	      0.00000000	      0.00000000	      0.00000000	      0.00000000
      0.16000000	      0.00000000	     -0.00000000	      0.00000000	      0.00000000	      0.00000000	      0.00000000	      0.00000000	      0.00000000	      0.00000000	      4.02015305	     90.86750031	   -678.63897705	   -320.51851217	  -1087.38648486	      0.00000000	      0.00000000	      0.00000000	   2457.03062126	     -5.54566446	     -1.68305146	    -50.09837341	   -259.98496424	   -735.31843370	      0.00000000	     -0.00000000	     -0.00000000	   -490.55471188	      0.00000000	     -0.00000000	      0.00000000	      0.00000000	      0.00000000	      0.00000000	      0.00000000	      0.00000000	      0.00000000
